<?xml version="1.0" encoding="UTF-8"?><svg id="Capa_2" xmlns="http://www.w3.org/2000/svg" viewBox="0 0 56.98 56.98"><g id="Capa_1-2"><g><path d="M56.3,22.31C53.65,10.47,43.87,1.63,31.82,.19c-.44-.05-.91,.03-1.33-.19h-.22c-.45,.09-.89,.09-1.34,0h-.89c-.45,.09-.89,.09-1.34,0h-.45c-.06,.06-.13,.06-.21,.06-1.66,0-3.28,.3-4.88,.74-5.81,1.59-10.71,4.66-14.6,9.28C3.27,14,1.18,18.51,.28,23.57c-.16,.89-.14,1.8-.28,2.69v.45c.09,.45,.09,.89,0,1.34v.89c.09,.45,.09,.89,0,1.34v.45c.15,.05,.1,.18,.11,.28,.17,2.02,.56,3.99,1.16,5.93,4.62,14.99,20.63,23.42,35.65,18.79,14.12-4.35,22.61-18.97,19.39-33.39ZM28.44,54.39c-14.32-.06-25.93-11.72-25.86-25.96C2.66,14.12,14.25,2.56,28.5,2.58c14.3,.02,25.93,11.67,25.89,25.93-.04,14.31-11.69,25.93-25.95,25.87Z"/><path d="M25.91,34.27c0-1.78-.01-3.56,0-5.34,0-.37-.11-.47-.47-.45-.59,.03-1.19,0-1.78,.01-.3,.01-.37-.09-.37-.38,.02-1.04,.02-2.08,0-3.11,0-.31,.08-.42,.4-.41,.59,.03,1.19-.01,1.78,.01,.34,.02,.43-.08,.44-.43,0-1.18-.09-2.37,.11-3.55,.47-2.74,2.21-3.46,4.19-3.7,1.44-.18,2.89-.09,4.33-.11,.31,0,.42,.08,.41,.4-.02,1.06-.02,2.11,0,3.17,0,.27-.08,.34-.34,.34-.81,0-1.63-.07-2.44,.05-.77,.11-1.01,.34-1.06,1.1-.05,.78-.02,1.56-.05,2.33-.02,.34,.13,.39,.42,.39,1.02-.01,2.04,.01,3.06-.01,.37,0,.43,.11,.39,.44-.13,.99-.24,1.99-.34,2.98-.03,.35-.13,.51-.53,.49-.83-.04-1.67,.02-2.5-.02-.46-.02-.5,.16-.49,.54,.01,3.52,0,7.05,.02,10.57,0,.46-.11,.59-.58,.58-1.39-.03-2.78-.02-4.17,0-.35,0-.44-.09-.43-.43,.02-1.82,0-3.63,0-5.45Z"/></g></g></svg>