<?xml version="1.0" encoding="UTF-8"?>
<svg id="Capa_2" xmlns="http://www.w3.org/2000/svg" viewBox="0 0 55.86 55.88">
  <path d="M.09,26.4c0,.16,.07,.32-.09,.44v-.44s.06-.05,.09,0Z"/>
  <path class="cls-3" d="M0,28.92c.14,.08,.11,.21,.09,.33-.03,.04-.06,.04-.09,0v-.33Z"/>
  <path d="M.09,26.4s-.06,0-.09,0v-.22c.13,.03,.1,.12,.09,.21Z"/>
  <path class="cls-1" d="M0,29.25s.06,0,.09,0v.22s-.07,.04-.09,0v-.22Z"/>
  <path class="cls-2" d="M0,29.47H.09c.01,.1,.04,.19-.09,.22v-.22Z"/>
  <path d="M55.67,24.68c-.66-5.68-2.81-10.75-6.63-14.99C41.72,1.57,32.58-1.52,21.89,.7,10.5,3.07,1.99,12.42,.29,23.92,.21,24.5,.24,25.1,0,25.65v.55c.08,.07,.05,.17,.06,.26-.02,.13,.05,.28-.06,.4v2.07c.09,.09,.04,.21,.06,.32,0,.07,0,.13,0,.2,0,.09,.02,.18-.06,.25v.55c.1,.52,.06,1.04,.13,1.56,.31,2.34,.92,4.6,1.82,6.78,1.78,4.3,4.44,7.96,8.02,10.93,3.83,3.18,8.2,5.22,13.1,6.1,.86,.15,1.73,.15,2.58,.28h.44c.07-.08,.17-.05,.26-.06,.07,0,.14,0,.21,0,.14,.02,.28-.05,.41,.06h1.96c.12-.1,.27-.04,.41-.06,.07,0,.14,0,.21,0,.09,0,.19-.02,.26,.06h.22c.03-.12,.13-.1,.21-.11,2.06-.14,4.07-.54,6.03-1.16,12.88-4.06,20.97-16.51,19.42-29.94Zm-27.75,29.34c-14.38,0-26.08-11.72-26.07-26.09C1.87,13.54,13.57,1.85,27.95,1.86c14.39,0,26.09,11.72,26.07,26.09-.02,14.38-11.73,26.08-26.1,26.08Z"/>
  <path d="M44.71,16.18c0-.47-.02-.95-.15-1.4-.63-2.31-2.37-3.6-4.88-3.6-7.82,0-15.64,0-23.46,0-.49,0-.98,.02-1.46,.15-2.26,.62-3.58,2.31-3.58,4.73-.02,7.93-.01,15.86,0,23.79,0,1.57,.57,2.9,1.84,3.89,.95,.74,2.04,.98,3.22,.98,3.91,0,7.82,0,11.73,0,3.87,0,7.75,0,11.62,0,.53,0,1.06-.02,1.57-.16,2.29-.64,3.56-2.36,3.56-4.85,0-7.84,0-15.68,0-23.52Zm-5,26.67c-7.86,0-15.71,0-23.57,0-1.98,0-3.1-1.13-3.11-3.12,0-3.93,0-7.86,0-11.78s0-7.86,0-11.78c0-1.57,.75-2.67,2.08-3.01,.35-.09,.72-.11,1.08-.11,7.84,0,15.68,0,23.51,0,2.01,0,3.14,1.13,3.14,3.14,0,7.84,0,15.68,0,23.51,0,2.02-1.12,3.15-3.13,3.15Z"/>
  <path d="M27.92,18.64c-5.14,.01-9.27,4.15-9.28,9.29-.01,5.15,4.17,9.33,9.32,9.31,5.14-.02,9.28-4.15,9.29-9.29,0-5.15-4.17-9.33-9.32-9.31Zm-.02,16.74c-4.13-.03-7.44-3.38-7.4-7.49,.04-4.11,3.35-7.39,7.45-7.39,4.13,0,7.45,3.35,7.43,7.47-.02,4.12-3.37,7.44-7.48,7.41Z"/>
  <path d="M38.2,14.91c-1.54,0-2.82,1.26-2.81,2.79,.01,1.52,1.27,2.77,2.78,2.78,1.53,.01,2.8-1.27,2.79-2.81,0-1.54-1.23-2.76-2.77-2.77Zm0,3.7c-.5,0-.94-.44-.92-.94,.01-.52,.45-.91,.97-.89,.5,.02,.87,.42,.86,.93-.01,.49-.42,.9-.91,.9Z"/>
</svg>