<?xml version="1.0" encoding="UTF-8"?><svg id="Capa_2" xmlns="http://www.w3.org/2000/svg" viewBox="0 0 56.71 56.83"><g id="Capa_3"><g><path d="M56.34,23.95c-.96-6.37-3.83-11.86-8.63-16.16C39.16,.12,29.25-2.02,18.49,1.96,8.16,5.79,2.16,13.55,.29,24.44c-.11,.64-.07,1.31-.29,1.93v.44c.09,.41,.09,.81,0,1.22v.89c.09,.41,.09,.81,0,1.22v.44c.07,.07,.06,.17,.06,.26-.01,1.69,.31,3.34,.75,4.96,1.59,5.77,4.64,10.62,9.22,14.48,3.91,3.29,8.4,5.37,13.44,6.27,.89,.16,1.79,.14,2.68,.28h.44c.44-.09,.89-.09,1.33,0h.89c.41-.09,.81-.09,1.22,0h.33c.05-.15,.18-.1,.28-.1,1.2-.06,2.39-.25,3.56-.5,5.84-1.26,10.87-4.03,14.9-8.44,6.19-6.77,8.62-14.78,7.25-23.84Zm-27.99,30.3c-14.23-.01-25.81-11.6-25.78-25.81,.03-14.24,11.63-25.81,25.82-25.77,14.25,.05,25.82,11.65,25.75,25.84-.06,14.24-11.6,25.75-25.79,25.74Z"/><path d="M15.59,36.45c2.8,.17,5.29-.54,7.6-2.25-2.39-.24-3.99-1.38-4.88-3.59,.78,.02,1.49,.13,2.28-.16-1.26-.31-2.25-.9-2.99-1.85-.75-.95-1.16-2.04-1.13-3.31,.71,.3,1.38,.58,2.22,.57-2.24-1.92-2.8-4.16-1.51-6.88,2.9,3.33,6.49,5.15,10.9,5.45-.15-1.01-.1-1.96,.22-2.9,.98-2.84,4.56-4.29,7.24-2.9,.39,.2,.83,.37,1.11,.71,.35,.41,.72,.38,1.17,.24,.88-.26,1.73-.6,2.55-1.06-.19,.92-.63,1.52-2.07,2.77,.99-.05,1.85-.39,2.83-.72-.61,.93-1.27,1.66-2.06,2.26-.35,.26-.46,.54-.46,.97,0,7.17-4.99,13.28-12.04,14.63-3.78,.72-7.41,.13-10.76-1.84-.07-.04-.14-.09-.22-.14Z"/></g></g></svg>